# xmcd CD database file
#
# Track frame offsets:
#	150
#	24805
#	53195
#	87350
#	110134
#	133820
#	168035
#	191949
#	210915
#	230494
#	256920
#
# Disc length: 3885 seconds
#
# Revision: 0
# Processed by: cddbd v1.4PL0 Copyright (c) Steve Scherf et al.
# Submitted via: CDex 1.50
#
DISCID=900f2b0b
DTITLE=Guido Basso and Dave Turner - Dedications
DYEAR=2002
DGENRE=Jazz
TTITLE0=Hip Snake Dance
TTITLE1=Samba Em Preludio
TTITLE2=Heath's Row
TTITLE3=The Elegance Of Duke
TTITLE4=In A Boppish Sort Of Way
TTITLE5=Eye Of The Mist
TTITLE6=Cannon Fodder
TTITLE7=Nowhere To Go
TTITLE8=Guido Swings
TTITLE9=Sweet Lady Day
TTITLE10=Gone Too Soon
EXTD=YEAR: 2002
EXTT0=
EXTT1=
EXTT2=
EXTT3=
EXTT4=
EXTT5=
EXTT6=
EXTT7=
EXTT8=
EXTT9=
EXTT10=
PLAYORDER=
